PathFileType	4	(X/Y/Z)	./resultDataOpenSim/trcMotMarkerGrf/sub10/qtm-01-06.trc
DataRate	CameraRate	NumFrames	NumMarkers	Units	OrigDataRate	OrigDataStartFrame	OrigNumFrames
250.000000	250.000000	6	24	m	250.000000	291	464
Frame#	Time	L.Toe.Tip			R.Toe.Tip			L.Ankle.Lat			R.Ankle.Lat			L.Ankle.Med			R.Ankle.Med			L.Heel			R.Heel			L.Knee.Lat			R.Knee.Lat			L.Knee.Med			R.Knee.Med			L.Thigh.Upper			R.Thigh.Upper			L.ASIS			R.ASIS			V.Sacral			L.Acromium			R.Acromium			C7			L.Elbow			R.Elbow			L.Wrist.Lat			R.Wrist.Lat
		X1	Y1	Z1	X2	Y2	Z2	X3	Y3	Z3	X4	Y4	Z4	X5	Y5	Z5	X6	Y6	Z6	X7	Y7	Z7	X8	Y8	Z8	X9	Y9	Z9	X10	Y10	Z10	X11	Y11	Z11	X12	Y12	Z12	X13	Y13	Z13	X14	Y14	Z14	X15	Y15	Z15	X16	Y16	Z16	X17	Y17	Z17	X18	Y18	Z18	X19	Y19	Z19	X20	Y20	Z20	X21	Y21	Z21	X22	Y22	Z22	X23	Y23	Z23	X24	Y24	Z24

291	1.16	0.057406292	0.043271841	-0.078242358	0.8100507	0.054219206	0.072479739	-0.038758116	0.13129255	-0.11764874	0.67021118	0.053069983	0.11012525	-0.018163007	0.14737622	-0.03558861	0.6859062	0.083982426	0.026382015	-0.10807779	0.14363745	-0.076518333	0.62208262	0.025924338	0.062674455	0.21658731	0.42613905	-0.14583644	0.59816165	0.44708789	0.13513532	0.22084196	0.39741298	-0.025980276	0.6030487	0.45050325	0.0039777303	0.33360962	0.7979656	-0.19553396	0.44293629	0.82663848	0.18003005	0.41758269	0.89923803	-0.15421664	0.4870823	0.91704244	0.086945145	0.25563945	0.91377129	0.031839523	0.37487415	1.3724938	-0.16738531	0.34554878	1.3731011	0.15641662	0.27574513	1.397936	-0.018535211	0.41832101	1.0304687	-0.24043513	0.20408214	1.0608711	0.1759334	0.65328527	0.95931525	-0.21304103	0.22354085	0.83660683	0.26696658
292	1.164	0.058318159	0.043304895	-0.078333047	0.81118303	0.050884641	0.071675809	-0.03473739	0.13462005	-0.11801367	0.67150533	0.052859381	0.11035225	-0.013040945	0.14986815	-0.03626104	0.68733926	0.083498275	0.0265012	-0.10301671	0.14863793	-0.076415751	0.62278895	0.026668037	0.063086329	0.2250017	0.42587911	-0.14565852	0.60461367	0.44809342	0.13539595	0.228785	0.39721808	-0.026071105	0.60917977	0.45141765	0.004137311	0.3418313	0.79702507	-0.19473499	0.45019275	0.82797659	0.18105157	0.42565758	0.89857777	-0.15284936	0.49394634	0.91810349	0.08836528	0.26674108	0.91332983	0.03074553	0.38122979	1.3730042	-0.16668755	0.35199124	1.3733338	0.15719929	0.28223218	1.3981486	-0.0176856	0.42386087	1.0307509	-0.23969146	0.21082585	1.061139	0.17651728	0.65864572	0.95896771	-0.21211744	0.22959606	0.83697265	0.26784689
293	1.168	0.059402979	0.043335696	-0.078405239	0.81237666	0.047831069	0.070723922	-0.030302661	0.13798685	-0.11837351	0.67275894	0.052700335	0.11046816	-0.007462071	0.15229372	-0.036931133	0.6887068	0.083049932	0.026548635	-0.097414124	0.15371261	-0.076201569	0.62348873	0.02738282	0.063486665	0.23379509	0.42554872	-0.14557074	0.61111955	0.44916753	0.13564184	0.23718944	0.39678375	-0.026246883	0.61522291	0.45246141	0.0043115499	0.35009279	0.79608244	-0.19391848	0.45751771	0.82941896	0.18205344	0.43374322	0.89797117	-0.15141725	0.50080319	0.91923406	0.089778977	0.27658941	0.91348463	0.030444331	0.38760857	1.3735742	-0.16595635	0.35842386	1.3736066	0.15796908	0.28876241	1.398415	-0.016849244	0.42931264	1.0311055	-0.23896604	0.21757461	1.0614455	0.17713362	0.66388942	0.95857827	-0.21124218	0.23577703	0.83736837	0.26873064
294	1.172	0.060699744	0.043343837	-0.078448976	0.81372446	0.045329392	0.069749033	-0.02541893	0.14137244	-0.11874081	0.67410519	0.052581813	0.11044766	-0.0014142925	0.15461162	-0.037583301	0.69007373	0.082637017	0.026464426	-0.091252544	0.15883132	-0.075843547	0.62419807	0.028053627	0.063838561	0.24295505	0.42516315	-0.14558499	0.61756069	0.45018821	0.1359186	0.24609588	0.39598044	-0.026501576	0.62115361	0.45358872	0.0044702651	0.35838543	0.79513642	-0.19309648	0.46490632	0.83095238	0.18304181	0.44183024	0.89741688	-0.14992379	0.50774011	0.92036312	0.091117619	0.28473925	0.91377464	0.029895686	0.39400582	1.3741937	-0.16519302	0.36485317	1.3739208	0.15872406	0.29530961	1.3987227	-0.016024031	0.43471935	1.0315295	-0.23813605	0.22433487	1.061772	0.1777744	0.66903463	0.95815576	-0.21040573	0.24204168	0.83778424	0.26960449
295	1.176	0.062225045	0.043290617	-0.078466762	0.81522864	0.04346536	0.069006167	-0.020117993	0.14474338	-0.1190792	0.6755305	0.052499256	0.11028874	0.0051038112	0.15676505	-0.038193528	0.69143941	0.082251699	0.026231382	-0.084525666	0.16395562	-0.075337963	0.62488276	0.02863925	0.064087752	0.2524536	0.4247285	-0.14571028	0.62379143	0.45105401	0.13622595	0.25546537	0.39483412	-0.026821346	0.62695419	0.45473873	0.0045985882	0.36669183	0.7941863	-0.19226161	0.47233436	0.83254711	0.18402652	0.44990646	0.89691536	-0.14837818	0.514756	0.92146233	0.092352865	0.29106816	0.91379624	0.028502926	0.40041228	1.3748463	-0.16440562	0.37129256	1.374276	0.15946507	0.30185084	1.3990596	-0.015195946	0.4400982	1.0320163	-0.23713772	0.23112089	1.0621034	0.17843543	0.67409129	0.95770161	-0.20960882	0.24836564	0.83820763	0.27045905
296	1.18	0.0639579	0.043134502	-0.078458572	0.81674001	0.042128926	0.068723484	-0.014456427	0.14805582	-0.11934123	0.67688535	0.052454918	0.11003581	0.01207477	0.158703	-0.038746264	0.69275195	0.081887982	0.025896415	-0.077253048	0.16904868	-0.074687826	0.62548643	0.029094595	0.064201616	0.26223635	0.42423616	-0.14594575	0.62970508	0.45169353	0.13652433	0.26520119	0.3935032	-0.027189666	0.63261098	0.45584717	0.0046968145	0.37499247	0.7932374	-0.19139586	0.47976034	0.83416825	0.18501529	0.45795168	0.896468	-0.14680052	0.52178889	0.92254559	0.093495267	0.2964623	0.91361389	0.026738666	0.40681295	1.3755173	-0.16360778	0.3777448	1.3746648	0.16018715	0.30836184	1.3994149	-0.01435244	0.445417	1.032547	-0.23603087	0.23793911	1.0624302	0.1791201	0.67906419	0.95721397	-0.20886533	0.25479123	0.83863265	0.27130437
